<?xml version="1.0" encoding="utf-8"?>
<!-- Generator: Adobe Illustrator 26.1.0, SVG Export Plug-In . SVG Version: 6.00 Build 0)  -->
<svg version="1.1" id="Layer_1" xmlns="http://www.w3.org/2000/svg" xmlns:xlink="http://www.w3.org/1999/xlink" x="0px" y="0px"
	 viewBox="0 0 170 81.51" style="enable-background:new 0 0 170 81.51;" xml:space="preserve">
<style type="text/css">
	.st0{fill-rule:evenodd;clip-rule:evenodd;fill:#193B6B;}
	.st1{filter:url(#Adobe_OpacityMaskFilter);}
	.st2{fill-rule:evenodd;clip-rule:evenodd;fill:#FFFFFF;}
	
		.st3{mask:url(#v8xp2axqgb_00000133496241114227969090000008367631836932783551_);fill-rule:evenodd;clip-rule:evenodd;fill:#193B6B;}
	.st4{fill-rule:evenodd;clip-rule:evenodd;fill:#EE3135;}
	.st5{filter:url(#Adobe_OpacityMaskFilter_00000048473366683692673640000012127734993099520146_);}
	
		.st6{mask:url(#w3t8mptdad_00000010276286406372260790000011299445843390090659_);fill-rule:evenodd;clip-rule:evenodd;fill:#EE3135;}
	.st7{fill:#193B6B;}
</style>
<g>
	<g>
		<g>
			<g>
				<g>
					<path class="st0" d="M119.34,27.2c-5.76,0-10.43,4.66-10.43,10.41s4.67,10.41,10.43,10.41c5.76,0,10.43-4.66,10.43-10.41
						C129.77,31.86,125.1,27.2,119.34,27.2 M119.34,43.86c-3.46,0-6.26-2.8-6.26-6.25c0-3.45,2.8-6.25,6.26-6.25
						c3.46,0,6.26,2.8,6.26,6.25C125.6,41.07,122.8,43.86,119.34,43.86 M135.99,29.87l-4.17-4.17v5.89v16.43h4.17V35.76l9.61,9.59
						v-5.89L135.99,29.87z"/>
					<g transform="translate(-100.000000, -20.000000) translate(100.000000, 20.000000) translate(120.411333, 15.921931)">
						<defs>
							<filter id="Adobe_OpacityMaskFilter" filterUnits="userSpaceOnUse" x="31.39" y="11.28" width="13.7" height="20.83">
								<feColorMatrix  type="matrix" values="1 0 0 0 0  0 1 0 0 0  0 0 1 0 0  0 0 0 1 0"/>
							</filter>
						</defs>
						
							<mask maskUnits="userSpaceOnUse" x="31.39" y="11.28" width="13.7" height="20.83" id="v8xp2axqgb_00000133496241114227969090000008367631836932783551_">
							<g class="st1">
								<path id="r2temrseoa_00000018953768370305895530000004479066613213547169_" class="st2" d="M31.39,11.28h13.7v20.83h-13.7
									V11.28z"/>
							</g>
						</mask>
						<path class="st3" d="M45.09,15.45v-4.17h-9.53h-4.17v4.17v4.17v4.17v4.17v4.17h4.17h9.53v-4.17h-9.53v-4.17h8.14v-4.17h-8.14
							v-4.17H45.09z"/>
					</g>
					<path class="st4" d="M145.6,27.2L145.6,27.2l0,0.02c-0.01,1.96-1.6,3.54-3.56,3.54v4.17c1.29,0,2.5-0.32,3.56-0.87v11.3
						l4.17,4.16V27.2L145.6,27.2L145.6,27.2z"/>
					<g transform="translate(-100.000000, -20.000000) translate(100.000000, 20.000000) translate(30.673937, 0.000000)">
						<defs>
							
								<filter id="Adobe_OpacityMaskFilter_00000060008725461706234850000002764256368102212514_" filterUnits="userSpaceOnUse" x="11.27" y="7.4" width="51.17" height="19.95">
								<feColorMatrix  type="matrix" values="1 0 0 0 0  0 1 0 0 0  0 0 1 0 0  0 0 0 1 0"/>
							</filter>
						</defs>
						
							<mask maskUnits="userSpaceOnUse" x="11.27" y="7.4" width="51.17" height="19.95" id="w3t8mptdad_00000010276286406372260790000011299445843390090659_">
							<g style="filter:url(#Adobe_OpacityMaskFilter_00000060008725461706234850000002764256368102212514_);">
								<path id="ixvftyrxpc_00000063616714638632234470000015787436020356315027_" class="st2" d="M11.27,7.4h51.17v19.95H11.27
									V7.4z"/>
							</g>
						</mask>
						<path class="st6" d="M32.06,13.2l-8.39,5.72c18.17,0.52,30.51-5.26,30.51-5.26c-13.17,6.39-27.07,6.97-32.91,6.89l-10,6.81
							c0,0,31.27-0.77,51.17-19.95C62.45,7.4,50.14,16.5,32.06,13.2"/>
					</g>
					<path class="st0" d="M100.35,27.22h-0.82c0,0,0.37,0.55-0.15,1.31l-6.93,9.41l0.83-8.96c0.16-1.15,1.07-1.77,1.07-1.77H91.4
						v0.01h-7.46l-7.9,10.72l0.83-8.9c0-0.01,0.01-0.02,0.01-0.03c0.16-1.16,1.08-1.79,1.08-1.79h-0.92v0l-9.5,0v0
						c-0.5-0.02-24.3-1.13-27.87,5.21c1.47-2.94,2.46-5.09,2.52-5.18H24.92c0.18,0.05,1.13,0.57,0.81,1.47v0
						c-0.9,3.06-3.1,10.17-5.54,15.43c-3.21,6.89-10.44,9.42-15.4,11.17c-0.46,0.16-0.38,0.5,0.09,0.5
						c12.2,0.07,22.22-0.9,29.8-14.01c1.76-3.04,3.48-6.36,4.84-9.07c-0.09,0.2-0.16,0.41-0.21,0.63
						c-1.56,7.07,11.68,7.52,11.49,9.21c-0.17,1.49-8.06,1.03-13.27-0.68c-0.03-0.01-0.05-0.02-0.07-0.03
						c-1-0.33-1.42-0.92-1.42-0.92l0.04,0.41l0,0c0,0,0.01,0.03,0.01,0.06l0.21,1.89c0.21,1.99,0.48,4.79,0.48,4.79
						s27.57,3.48,28.08-5.47c0.38-6.77-12.9-7.59-12.75-9.07c0.14-1.39,6.6-1.57,10.52-0.98c0.01,0,0.02,0.01,0.03,0.01
						c1.75,0.28,2,1.22,2,1.22l0.29-0.66h0.01c0-0.03,2.37-5.43,2.58-5.9l-1.78,18.97c-0.16,1.17-1.08,1.79-1.08,1.79h1.86
						l8.55,0.01l7.91-10.74l-0.84,8.95c-0.16,1.15-1.07,1.78-1.07,1.78H82v0l9.5-0.01l15.33-20.8L100.35,27.22L100.35,27.22z"/>
				</g>
			</g>
		</g>
	</g>
	<g>
		<path class="st7" d="M124.06,56.76v15.65h-3.07v-6.65l-4.4,6.4h-0.02l-4.41-6.4v6.65h-3.07V56.76h0.17l7.32,10.09l7.31-10.09
			H124.06z"/>
		<path class="st7" d="M125.92,69.78l2.45-1.72c0.67,1.08,1.65,1.57,2.97,1.57c1.44,0,2.41-0.59,2.41-1.4c0-1.12-1.83-2-3.43-2.8
			c-1.72-0.85-3.6-1.79-3.6-4.23c0-2.64,2.24-4.39,5.04-4.39c2.08,0,3.81,0.86,4.5,2.71l-2.26,1.58c-0.45-0.91-1.34-1.28-2.19-1.28
			c-1.15,0-2,0.66-2,1.45c0,0.91,1.16,1.22,2.91,2.05c2.53,1.19,4.12,2.48,4.12,4.83c0,2.79-2.27,4.56-5.54,4.56
			C128.79,72.72,126.94,71.68,125.92,69.78z"/>
		<path class="st7" d="M153.65,56.76v15.65h-3.07v-6.65l-4.4,6.4h-0.02l-4.41-6.4v6.65h-3.07V56.76h0.17l7.32,10.09l7.31-10.09
			H153.65z"/>
		<path class="st7" d="M159.37,60.16v2.98h5.27v3.06h-5.27v3.16h6.14v3.05h-9.21V57.14h9.21v3.02H159.37z"/>
	</g>
</g>
</svg>
